<svg xmlns="http://www.w3.org/2000/svg" viewBox="0 0 64 64" fill="none">
  <rect width="64" height="64" rx="16" fill="#09090b"/>
  <!-- Central Axis & Pedestal -->
  <path d="M32 9v42" stroke="#f59e0b" stroke-width="3.2" stroke-linecap="round"/>
  <circle cx="32" cy="8.5" r="3.5" fill="#f59e0b"/>
  <path d="M20 53h24" stroke="#f59e0b" stroke-width="3.5" stroke-linecap="round"/>
  <path d="M25 49h14" stroke="#f59e0b" stroke-width="2.5" stroke-linecap="round"/>
  <!-- Beam -->
  <path d="M12 18c10-2.5 30-2.5 40 0" stroke="#f59e0b" stroke-width="3" stroke-linecap="round"/>
  <circle cx="12" cy="18" r="1.5" fill="#f59e0b"/>
  <circle cx="52" cy="18" r="1.5" fill="#f59e0b"/>
  <!-- Left Pan -->
  <path d="M12 18l-6 16M12 18l6 16" stroke="#f59e0b" stroke-width="1.8" stroke-linecap="round"/>
  <path d="M4 34c0 6 16 6 16 0z" fill="#f59e0b"/>
  <!-- Right Pan -->
  <path d="M52 18l-6 16M52 18l6 16" stroke="#f59e0b" stroke-width="1.8" stroke-linecap="round"/>
  <path d="M44 34c0 6 16 6 16 0z" fill="#f59e0b"/>
</svg>